<svg xmlns="http://www.w3.org/2000/svg" xmlns:xlink="http://www.w3.org/1999/xlink" xml:space="preserve" version="1.1"
  style="shape-rendering:geometricPrecision;text-rendering:geometricPrecision;image-rendering:optimizeQuality;"
  viewBox="0 0 519 648.75" x="0px" y="0px" fill-rule="evenodd" clip-rule="evenodd">
  <defs>
    <style type="text/css">
      .fil0 {
        fill: black
      }
    </style>
  </defs>
  <g>
    <path class="fil0"
      d="M16 425l165 -166 -165 -165c-21,-21 -21,-56 0,-78 22,-21 57,-21 78,0l165 165 166 -165c21,-21 56,-21 78,0 21,22 21,57 0,78l-166 165 166 166c21,21 21,56 0,78 -22,21 -57,21 -78,0l-166 -166 -165 166c-21,21 -56,21 -78,0 -21,-22 -21,-57 0,-78z" />
  </g>
    </svg>