<svg xmlns="http://www.w3.org/2000/svg" xmlns:xlink="http://www.w3.org/1999/xlink" xml:space="preserve" version="1.1" style="shape-rendering:geometricPrecision;text-rendering:geometricPrecision;image-rendering:optimizeQuality;" viewBox="0 0 217 218.75" x="0px" y="0px" fill-rule="evenodd" clip-rule="evenodd"><defs><style type="text/css">
   
    .fil0 {fill:black;fill-rule:nonzero}
   
  </style></defs><g><path class="fil0" d="M5 0l206 0c3,0 6,2 6,5l0 134c0,3 -3,5 -6,5l-80 0 0 20 34 0c7,0 7,11 0,11l-113 0c-7,0 -7,-11 0,-11l34 0 0 -20 -81 0c-3,0 -5,-2 -5,-5l0 -134c0,-3 2,-5 5,-5zm201 11l-195 0 0 123 195 0 0 -123z"/></g><text x="0" y="190" fill="#000000" font-size="5px" font-weight="bold" font-family="'Helvetica Neue', Helvetica, Arial-Unicode, Arial, Sans-serif">Created by NOVITA ASTRI</text><text x="0" y="195" fill="#000000" font-size="5px" font-weight="bold" font-family="'Helvetica Neue', Helvetica, Arial-Unicode, Arial, Sans-serif">from the Noun Project</text></svg>