<svg xmlns="http://www.w3.org/2000/svg" xmlns:xlink="http://www.w3.org/1999/xlink" version="1.1" x="0px" y="0px" viewBox="0 0 100 125" style="enable-background:new 0 0 100 100;" xml:space="preserve"><g><path d="M6.2,36.2v50.1c0,6.1,5,11.1,11.1,11.1h66.8c6.1,0,11.1-5,11.1-11.1V36.2H6.2z M62.3,67.9L43.1,79.3   c-0.7,0.4-1.6-0.1-1.6-0.9l0.1-22.9c0-0.8,0.9-1.3,1.6-0.9L62.3,66C62.9,66.4,62.9,67.4,62.3,67.9z"/><path d="M22.3,29.3L13.6,20L9,21.1c-3,0.7-4.8,3.7-4.1,6.7l1.3,5.4L22.3,29.3z"/><polygon points="40.4,24.9 31.6,15.6 19.8,18.5 28.6,27.8  "/><polygon points="58.4,20.5 49.7,11.2 37.9,14.1 46.6,23.4  "/><polygon points="76.5,16.1 67.7,6.8 55.9,9.7 64.6,19  "/><path d="M92.8,12.2l-1.3-5.4c-0.7-3-3.7-4.8-6.7-4.1L73.9,5.3l8.8,9.4L92.8,12.2z"/></g><text x="0" y="115" fill="#000000" font-size="5px" font-weight="bold" font-family="'Helvetica Neue', Helvetica, Arial-Unicode, Arial, Sans-serif">Created by Nicolas LEULIET</text><text x="0" y="120" fill="#000000" font-size="5px" font-weight="bold" font-family="'Helvetica Neue', Helvetica, Arial-Unicode, Arial, Sans-serif">from the Noun Project</text></svg>