<svg xmlns="http://www.w3.org/2000/svg" viewBox="0 0 20 26.25" fill="none" x="0px" y="0px"><path fill-rule="evenodd" clip-rule="evenodd" d="M11.9637 5.31739H18C19.1046 5.31739 20 6.21281 20 7.31739V16.6965C20 17.8011 19.1046 18.6965 18 18.6965H17V20C17 20.5523 16.5522 21 16 21C15.4478 21 15 20.5523 15 20V18.6965H5V20C5 20.5523 4.55225 21 4 21C3.44775 21 3 20.5523 3 20V18.6965H2C0.895386 18.6965 0 17.8011 0 16.6965V7.31739C0 6.21281 0.895386 5.31739 2 5.31739H7.77783L5.64771 1.61509C5.37219 1.1364 5.53638 0.523907 6.01428 0.247052C6.49219 -0.0298036 7.10278 0.133832 7.3783 0.61253L9.87085 4.94456L12.428 0.500165C12.7035 0.021466 13.3141 -0.142169 13.792 0.134686C14.2699 0.411542 14.434 1.02403 14.1586 1.50273L11.9637 5.31739ZM18 7.31739H2V16.6965H18V7.31739Z" fill="black"/><text x="0" y="36" fill="#000000" font-size="5px" font-weight="bold" font-family="'Helvetica Neue', Helvetica, Arial-Unicode, Arial, Sans-serif">Created by Marko FuÄek</text><text x="0" y="41" fill="#000000" font-size="5px" font-weight="bold" font-family="'Helvetica Neue', Helvetica, Arial-Unicode, Arial, Sans-serif">from the Noun Project</text></svg>