<svg xmlns="http://www.w3.org/2000/svg" version="1.1" viewBox="0 0 32 40" x="0px" y="0px">
    <title>down-arrow-1</title>
    <path
        d="M29.828 9.024c-0.142 0-0.285 0.055-0.397 0.167l-12.171 12.145c-0.692 0.69-1.83 0.69-2.522-0.002l-12.171-12.143c-0.113-0.113-0.255-0.166-0.397-0.165s-0.28 0.052-0.393 0.165c-0.224 0.225-0.225 0.566 0 0.79l12.169 12.147c0.569 0.568 1.309 0.847 2.055 0.847 0 0 0.002 0 0.002 0 0.743-0.001 1.483-0.279 2.050-0.846l12.171-12.149c0.225-0.225 0.224-0.566 0-0.79-0.112-0.112-0.253-0.167-0.395-0.167z" />
</svg>